<?xml version="1.0" encoding="utf-8"?>
<!-- Generator: Adobe Illustrator 21.0.2, SVG Export Plug-In . SVG Version: 6.00 Build 0)  -->
<svg version="1.1" id="Layer_1" xmlns="http://www.w3.org/2000/svg" xmlns:xlink="http://www.w3.org/1999/xlink" x="0px" y="0px"
	 viewBox="0 0 391 94" style="enable-background:new 0 0 391 94;" xml:space="preserve">
<style type="text/css">
	.st0{fill:#69C5B4;}
	.st1{fill:#CB2027;}
	.st2{fill:none;stroke:#69C5B4;stroke-width:0.216;stroke-miterlimit:10;}
	.st3{fill:#404041;}
	.st4{fill:none;stroke:#404041;stroke-width:0.216;stroke-miterlimit:22.9256;}
	.st5{fill:none;stroke:#69C5B4;stroke-width:1.4173;stroke-miterlimit:22.9256;stroke-dasharray:2.83,4.25;}
</style>
<g>
	<path class="st0" d="M112.5,50.6c-2.7,3.3-6.8,5-12.3,5c-5.5,0-9.6-1.7-12.3-5c-2.7-3.3-4.1-7.4-4.1-12.1c0-4.6,1.4-8.6,4.1-12
		c2.7-3.4,6.8-5.1,12.3-5.1c5.5,0,9.6,1.7,12.3,5.1c2.7,3.4,4.1,7.4,4.1,12C116.6,43.3,115.2,47.3,112.5,50.6 M105.8,46
		c1.3-1.7,2-4.2,2-7.4c0-3.2-0.7-5.7-2-7.4c-1.3-1.7-3.2-2.6-5.7-2.6c-2.5,0-4.3,0.9-5.7,2.6c-1.3,1.7-2,4.2-2,7.4
		c0,3.2,0.7,5.7,2,7.4c1.3,1.7,3.2,2.6,5.7,2.6C102.6,48.6,104.5,47.7,105.8,46z"/>
	<path class="st0" d="M140.2,23c1.5,0.9,2.7,2,3.7,3.5V11.2h8.5v43.3h-8.2v-4.4c-1.2,1.9-2.6,3.3-4.1,4.2c-1.5,0.9-3.4,1.3-5.7,1.3
		c-3.8,0-6.9-1.5-9.5-4.6c-2.6-3-3.8-6.9-3.8-11.7c0-5.5,1.3-9.8,3.8-12.9c2.5-3.1,5.9-4.7,10.1-4.7C137,21.7,138.7,22.1,140.2,23
		 M142.3,45.8c1.2-1.8,1.9-4.1,1.9-6.9c0-3.9-1-6.7-3-8.4c-1.2-1-2.6-1.5-4.2-1.5c-2.5,0-4.3,0.9-5.4,2.8c-1.1,1.9-1.7,4.2-1.7,6.9
		c0,3,0.6,5.3,1.8,7.1c1.2,1.8,2.9,2.7,5.3,2.7C139.2,48.5,141,47.6,142.3,45.8z"/>
	<path class="st0" d="M181.6,23.1c2.2,1,4.1,2.6,5.5,4.8c1.3,1.9,2.2,4.1,2.6,6.6c0.2,1.5,0.3,3.6,0.3,6.4h-23.4
		c0.1,3.2,1.2,5.5,3.4,6.8c1.3,0.8,2.8,1.2,4.6,1.2c1.9,0,3.5-0.5,4.7-1.5c0.7-0.5,1.2-1.3,1.7-2.2h8.6c-0.2,1.9-1.3,3.8-3.1,5.8
		c-2.9,3.1-6.9,4.7-12.1,4.7c-4.3,0-8-1.3-11.3-3.9c-3.3-2.6-4.9-6.9-4.9-12.9c0-5.6,1.5-9.8,4.4-12.8c2.9-3,6.8-4.5,11.5-4.5
		C176.8,21.6,179.3,22.1,181.6,23.1 M169,30.4c-1.2,1.2-1.9,2.9-2.2,5h14.5c-0.2-2.2-0.9-3.9-2.2-5.1c-1.3-1.2-3-1.7-5-1.7
		C171.9,28.5,170.2,29.1,169,30.4z"/>
	<path class="st0" d="M212.6,21.7c0.1,0,0.3,0,0.7,0v8.6c-0.5-0.1-1-0.1-1.4-0.1c-0.4,0-0.7,0-1,0c-3.4,0-5.6,1.1-6.8,3.3
		c-0.6,1.2-1,3.1-1,5.7v15.3h-8.5V22.5h8v5.6c1.3-2.1,2.4-3.6,3.4-4.4c1.6-1.3,3.6-2,6.1-2C212.4,21.7,212.5,21.7,212.6,21.7"/>
	<path class="st0" d="M244.7,24.3c2.1,1.7,3.2,4.6,3.2,8.6v21.6h-8.6V35c0-1.7-0.2-3-0.7-3.9c-0.8-1.6-2.4-2.5-4.7-2.5
		c-2.8,0-4.8,1.2-5.8,3.6c-0.5,1.3-0.8,2.9-0.8,4.9v17.4h-8.4v-32h8.1v4.7c1.1-1.6,2.1-2.8,3.1-3.6c1.7-1.3,3.9-1.9,6.5-1.9
		C239.9,21.7,242.6,22.6,244.7,24.3"/>
	<path class="st1" d="M292,18.6h-8.5v-7.8h8.5V18.6z M283.4,22.4h8.5v32.1h-8.5V22.4z"/>
	<path class="st1" d="M326.6,24.3c2.1,1.7,3.2,4.6,3.2,8.6v21.6h-8.6V35c0-1.7-0.2-3-0.7-3.9c-0.8-1.6-2.4-2.5-4.7-2.5
		c-2.8,0-4.8,1.2-5.8,3.6c-0.5,1.3-0.8,2.9-0.8,4.9v17.4h-8.4v-32h8.1v4.7c1.1-1.6,2.1-2.8,3.1-3.6c1.7-1.3,3.9-1.9,6.5-1.9
		C321.8,21.7,324.5,22.6,326.6,24.3"/>
	<path class="st1" d="M359,23.1c2.2,1,4.1,2.6,5.5,4.8c1.3,1.9,2.2,4.1,2.6,6.6c0.2,1.5,0.3,3.6,0.3,6.4H344
		c0.1,3.2,1.3,5.5,3.4,6.8c1.3,0.8,2.8,1.2,4.6,1.2c1.9,0,3.5-0.5,4.7-1.5c0.6-0.5,1.2-1.3,1.7-2.2h8.6c-0.2,1.9-1.3,3.8-3.1,5.8
		c-2.9,3.1-6.9,4.7-12.1,4.7c-4.3,0-8-1.3-11.3-3.9c-3.3-2.6-4.9-6.9-4.9-12.9c0-5.6,1.5-9.8,4.4-12.8c2.9-3,6.8-4.5,11.5-4.5
		C354.3,21.6,356.8,22.1,359,23.1 M346.5,30.4c-1.2,1.2-1.9,2.9-2.2,5h14.5c-0.2-2.2-0.9-3.9-2.2-5.1c-1.3-1.2-3-1.7-5-1.7
		C349.3,28.5,347.7,29.1,346.5,30.4z"/>
	<path class="st1" d="M262.4,10.8V39c0,2.8,0.6,4.9,1.8,6.5c0.7,0.9,1.5,1.6,2.5,2.1c0.8,0.4,1.8,0.7,3,0.7c0.3,0,0.7,0,1-0.1
		c1.1-0.1,2.8-0.7,5-1.7l2.9,6.9c-2.4,1.4-4.8,2.3-7.3,2.5c-0.9,0-1.8,0-2.7,0c-2.1,0-4-0.4-5.7-1.3c-2.2-1.1-4-2.6-5.4-4.5
		c-2.2-2.9-3.4-6.6-3.4-11V10.8H262.4z"/>
	<path class="st0" d="M75.1,21.2c1.4,0.6,2.6,1.5,3.7,2.9c0.9,1.1,1.5,2.5,1.8,4.1c0.2,1.1,0.3,2.7,0.3,4.7l-0.1,20.2h-8.6V32.8
		c0-1.2-0.2-2.2-0.6-3c-0.7-1.5-2.1-2.2-4.1-2.2c-2.3,0-3.9,1-4.8,2.9c-0.5,1-0.7,2.2-0.7,3.7v19.1h-8.5V34.1c0-1.9-0.2-3.3-0.6-4.2
		c-0.7-1.6-2.1-2.3-4.2-2.3c-2.4,0-4,0.8-4.8,2.3c-0.5,0.9-0.7,2.2-0.7,3.9v19.3h-8.5v-32h8.2v4.7c1-1.7,2-2.9,2.9-3.6
		c1.6-1.3,3.7-1.9,6.3-1.9c2.5,0,4.4,0.5,5.9,1.6c1.2,1,2.1,2.3,2.8,3.9c1.1-1.9,2.5-3.3,4.1-4.2c1.7-0.9,3.7-1.3,5.8-1.3
		C72.3,20.4,73.7,20.7,75.1,21.2z"/>
	<path class="st2" d="M75.1,21.2c1.4,0.6,2.6,1.5,3.7,2.9c0.9,1.1,1.5,2.5,1.8,4.1c0.2,1.1,0.3,2.7,0.3,4.7l-0.1,20.2h-8.6V32.8
		c0-1.2-0.2-2.2-0.6-3c-0.7-1.5-2.1-2.2-4.1-2.2c-2.3,0-3.9,1-4.8,2.9c-0.5,1-0.7,2.2-0.7,3.7v19.1h-8.5V34.1c0-1.9-0.2-3.3-0.6-4.2
		c-0.7-1.6-2.1-2.3-4.2-2.3c-2.4,0-4,0.8-4.8,2.3c-0.5,0.9-0.7,2.2-0.7,3.9v19.3h-8.5v-32h8.2v4.7c1-1.7,2-2.9,2.9-3.6
		c1.6-1.3,3.7-1.9,6.3-1.9c2.5,0,4.4,0.5,5.9,1.6c1.2,1,2.1,2.3,2.8,3.9c1.1-1.9,2.5-3.3,4.1-4.2c1.7-0.9,3.7-1.3,5.8-1.3
		C72.3,20.4,73.7,20.7,75.1,21.2z"/>
	<path class="st3" d="M129.3,70.2h0.6v5.4c0,2.4,1.1,3.1,2.4,3.1c1.3,0,2.4-0.7,2.4-3.1v-5.4h0.6v5.5c0,2.8-1.5,3.6-3,3.6
		c-1.5,0-3-0.8-3-3.6V70.2z"/>
	<path class="st4" d="M129.3,70.2h0.6v5.4c0,2.4,1.1,3.1,2.4,3.1c1.3,0,2.4-0.7,2.4-3.1v-5.4h0.6v5.5c0,2.8-1.5,3.6-3,3.6
		c-1.5,0-3-0.8-3-3.6V70.2z"/>
	<path class="st3" d="M117.2,70.2h0.9l1.9,5.2l0.7,2h0.1l0.7-2l1.9-5.2h0.9v8.9h-0.6v-5.9c0-0.7,0-1.7,0.1-2.4h-0.1l-0.7,2l-1.9,5.3
		h-0.5l-1.9-5.3l-0.7-2h-0.1c0,0.7,0.1,1.7,0.1,2.4v5.9h-0.6V70.2z"/>
	<path class="st4" d="M117.2,70.2h0.9l1.9,5.2l0.7,2h0.1l0.7-2l1.9-5.2h0.9v8.9h-0.6v-5.9c0-0.7,0-1.7,0.1-2.4h-0.1l-0.7,2l-1.9,5.3
		h-0.5l-1.9-5.3l-0.7-2h-0.1c0,0.7,0.1,1.7,0.1,2.4v5.9h-0.6V70.2z"/>
	<polygon class="st3" points="140.5,70.2 145.4,70.2 145.4,70.7 141.1,70.7 141.1,74.1 144.7,74.1 144.7,74.6 141.1,74.6 
		141.1,78.6 145.5,78.6 145.5,79.1 140.5,79.1 	"/>
	<polygon class="st4" points="140.5,70.2 145.4,70.2 145.4,70.7 141.1,70.7 141.1,74.1 144.7,74.1 144.7,74.6 141.1,74.6 
		141.1,78.6 145.5,78.6 145.5,79.1 140.5,79.1 	"/>
	<path class="st3" d="M150.1,70.2h2.4c1.8,0,2.9,0.7,2.9,2.2c0,0.9-0.5,1.7-1.6,1.9v0.1c1.3,0.2,2.1,0.9,2.1,2.2
		c0,1.7-1.3,2.6-3.3,2.6h-2.6V70.2z M152.2,74.1c1.8,0,2.6-0.6,2.6-1.8c0-1.1-0.9-1.6-2.5-1.6h-1.6v3.4H152.2z M152.5,78.6
		c1.8,0,2.9-0.6,2.9-2.1c0-1.3-1-1.9-2.9-1.9h-1.8v4H152.5z"/>
	<path class="st4" d="M150.1,70.2h2.4c1.8,0,2.9,0.7,2.9,2.2c0,0.9-0.5,1.7-1.6,1.9v0.1c1.3,0.2,2.1,0.9,2.1,2.2
		c0,1.7-1.3,2.6-3.3,2.6h-2.6V70.2z M152.2,74.1c1.8,0,2.6-0.6,2.6-1.8c0-1.1-0.9-1.6-2.5-1.6h-1.6v3.4H152.2z M152.5,78.6
		c1.8,0,2.9-0.6,2.9-2.1c0-1.3-1-1.9-2.9-1.9h-1.8v4H152.5z"/>
	<polygon class="st3" points="160.6,70.3 161.1,70.2 161.1,78.6 165.2,78.6 165.2,79.1 160.6,79.2 	"/>
	<polygon class="st4" points="160.6,70.3 161.1,70.2 161.1,78.6 165.2,78.6 165.2,79.1 160.6,79.2 	"/>
	<polygon class="st3" points="169.4,70.2 174.3,70.2 174.3,70.7 170.1,70.7 170.1,74.1 173.6,74.1 173.6,74.6 170.1,74.6 
		170.1,78.6 174.5,78.6 174.5,79.1 169.4,79.1 	"/>
	<polygon class="st4" points="169.4,70.2 174.3,70.2 174.3,70.7 170.1,70.7 170.1,74.1 173.6,74.1 173.6,74.6 170.1,74.6 
		170.1,78.6 174.5,78.6 174.5,79.1 169.4,79.1 	"/>
	<path class="st3" d="M178.7,77.5c0.6,0.7,1.6,1.2,2.6,1.2c1.4,0,2.2-0.7,2.2-1.8c0-1.1-0.7-1.5-1.6-1.9l-1.4-0.6
		c-0.8-0.3-1.8-0.9-1.8-2.2c0-1.3,1.1-2.2,2.6-2.2c1.1,0,1.9,0.5,2.5,1.1l-0.4,0.4c-0.5-0.6-1.2-0.9-2.1-0.9c-1.2,0-2,0.6-2,1.6
		c0,1,0.9,1.4,1.5,1.7l1.4,0.6c1,0.4,1.9,1,1.9,2.4c0,1.4-1.1,2.4-2.9,2.4c-1.3,0-2.3-0.6-3-1.3L178.7,77.5z"/>
	<path class="st4" d="M178.7,77.5c0.6,0.7,1.6,1.2,2.6,1.2c1.4,0,2.2-0.7,2.2-1.8c0-1.1-0.7-1.5-1.6-1.9l-1.4-0.6
		c-0.8-0.3-1.8-0.9-1.8-2.2c0-1.3,1.1-2.2,2.6-2.2c1.1,0,1.9,0.5,2.5,1.1l-0.4,0.4c-0.5-0.6-1.2-0.9-2.1-0.9c-1.2,0-2,0.6-2,1.6
		c0,1,0.9,1.4,1.5,1.7l1.4,0.6c1,0.4,1.9,1,1.9,2.4c0,1.4-1.1,2.4-2.9,2.4c-1.3,0-2.3-0.6-3-1.3L178.7,77.5z"/>
	<path class="st3" d="M194.1,70.2h2.1c2.7,0,4.1,1.7,4.1,4.4c0,2.7-1.3,4.5-4,4.5h-2.1V70.2z M196.1,78.6c2.4,0,3.5-1.6,3.5-4
		c0-2.3-1.1-3.9-3.5-3.9h-1.4v7.9H196.1z"/>
	<path class="st4" d="M194.1,70.2h2.1c2.7,0,4.1,1.7,4.1,4.4c0,2.7-1.3,4.5-4,4.5h-2.1V70.2z M196.1,78.6c2.4,0,3.5-1.6,3.5-4
		c0-2.3-1.1-3.9-3.5-3.9h-1.4v7.9H196.1z"/>
	<polygon class="st3" points="204.9,70.2 209.8,70.2 209.8,70.7 205.5,70.7 205.5,74.1 209.1,74.1 209.1,74.6 205.5,74.6 
		205.5,78.6 209.9,78.6 209.9,79.1 204.9,79.1 	"/>
	<polygon class="st4" points="204.9,70.2 209.8,70.2 209.8,70.7 205.5,70.7 205.5,74.1 209.1,74.1 209.1,74.6 205.5,74.6 
		205.5,78.6 209.9,78.6 209.9,79.1 204.9,79.1 	"/>
	<path class="st3" d="M219.9,70.2h2.1c2.7,0,4.1,1.7,4.1,4.4c0,2.7-1.3,4.5-4,4.5h-2.1V70.2z M221.8,78.6c2.4,0,3.5-1.6,3.5-4
		c0-2.3-1.1-3.9-3.5-3.9h-1.4v7.9H221.8z"/>
	<path class="st4" d="M219.9,70.2h2.1c2.7,0,4.1,1.7,4.1,4.4c0,2.7-1.3,4.5-4,4.5h-2.1V70.2z M221.8,78.6c2.4,0,3.5-1.6,3.5-4
		c0-2.3-1.1-3.9-3.5-3.9h-1.4v7.9H221.8z"/>
	<rect x="230.7" y="70.2" class="st3" width="0.6" height="8.9"/>
	<rect x="230.7" y="70.2" class="st4" width="0.6" height="8.9"/>
	<path class="st3" d="M236.2,77.5c0.6,0.7,1.6,1.2,2.6,1.2c1.4,0,2.2-0.7,2.2-1.8c0-1.1-0.7-1.5-1.6-1.9l-1.4-0.6
		c-0.8-0.3-1.8-0.9-1.8-2.2c0-1.3,1.1-2.2,2.6-2.2c1.1,0,1.9,0.5,2.5,1.1l-0.4,0.4c-0.5-0.6-1.2-0.9-2.1-0.9c-1.2,0-2,0.6-2,1.6
		c0,1,0.9,1.4,1.5,1.7l1.4,0.6c1,0.4,1.9,1,1.9,2.4c0,1.4-1.1,2.4-2.9,2.4c-1.3,0-2.3-0.6-3-1.3L236.2,77.5z"/>
	<path class="st4" d="M236.2,77.5c0.6,0.7,1.6,1.2,2.6,1.2c1.4,0,2.2-0.7,2.2-1.8c0-1.1-0.7-1.5-1.6-1.9l-1.4-0.6
		c-0.8-0.3-1.8-0.9-1.8-2.2c0-1.3,1.1-2.2,2.6-2.2c1.1,0,1.9,0.5,2.5,1.1l-0.4,0.4c-0.5-0.6-1.2-0.9-2.1-0.9c-1.2,0-2,0.6-2,1.6
		c0,1,0.9,1.4,1.5,1.7l1.4,0.6c1,0.4,1.9,1,1.9,2.4c0,1.4-1.1,2.4-2.9,2.4c-1.3,0-2.3-0.6-3-1.3L236.2,77.5z"/>
	<polygon class="st3" points="246.2,70.2 251.1,70.2 251.1,70.7 246.8,70.7 246.8,74.1 250.4,74.1 250.4,74.6 246.8,74.6 
		246.8,78.6 251.2,78.6 251.2,79.1 246.2,79.1 	"/>
	<polygon class="st4" points="246.2,70.2 251.1,70.2 251.1,70.7 246.8,70.7 246.8,74.1 250.4,74.1 250.4,74.6 246.8,74.6 
		246.8,78.6 251.2,78.6 251.2,79.1 246.2,79.1 	"/>
	<path class="st3" d="M255.8,70.2h0.6l3.7,6.3l1,1.8h0.1c0-0.9-0.1-1.7-0.1-2.6v-5.5h0.6v8.9h-0.7l-3.7-6.3l-1-1.8h-0.1
		c0,0.9,0.1,1.7,0.1,2.5v5.5h-0.6V70.2z M258,68.6c-0.3,0-0.5,0.3-0.6,0.8H257c0-0.6,0.4-1.2,1-1.2c0.7,0,1.1,0.8,1.6,0.8
		c0.3,0,0.5-0.3,0.6-0.8h0.4c0,0.6-0.4,1.2-1,1.2C258.9,69.4,258.5,68.6,258,68.6z"/>
	<path class="st4" d="M255.8,70.2h0.6l3.7,6.3l1,1.8h0.1c0-0.9-0.1-1.7-0.1-2.6v-5.5h0.6v8.9h-0.7l-3.7-6.3l-1-1.8h-0.1
		c0,0.9,0.1,1.7,0.1,2.5v5.5h-0.6V70.2z M258,68.6c-0.3,0-0.5,0.3-0.6,0.8H257c0-0.6,0.4-1.2,1-1.2c0.7,0,1.1,0.8,1.6,0.8
		c0.3,0,0.5-0.3,0.6-0.8h0.4c0,0.6-0.4,1.2-1,1.2C258.9,69.4,258.5,68.6,258,68.6z"/>
	<path class="st3" d="M266.8,74.5c0-2.8,1.8-4.5,4.4-4.5c2.6,0,4.4,1.7,4.4,4.5c0,2.8-1.8,4.6-4.4,4.6
		C268.7,79.1,266.8,77.3,266.8,74.5z M274.8,74.5c0-2.4-1.5-3.9-3.6-3.9c-2.2,0-3.6,1.5-3.6,3.9c0,2.4,1.5,4,3.6,4
		C273.4,78.5,274.8,77,274.8,74.5z"/>
	<path class="st4" d="M266.8,74.5c0-2.8,1.8-4.5,4.4-4.5c2.6,0,4.4,1.7,4.4,4.5c0,2.8-1.8,4.6-4.4,4.6
		C268.7,79.1,266.8,77.3,266.8,74.5z M274.8,74.5c0-2.4-1.5-3.9-3.6-3.9c-2.2,0-3.6,1.5-3.6,3.9c0,2.4,1.5,4,3.6,4
		C273.4,78.5,274.8,77,274.8,74.5z"/>
	<line class="st5" x1="6.2" y1="63.9" x2="384.8" y2="63.9"/>
	<line class="st5" x1="18.3" y1="83.2" x2="18.3" y2="11.6"/>
	<line class="st5" x1="372.2" y1="83.2" x2="372.2" y2="11.6"/>
</g>
</svg>
